# xmcd
#
# Track frame offsets:
#	150
#	16470
#	31831
#	44132
#	59926
#	71989
#	93021
#	112514
#	124545
#	137722
#	148393
#	161150
#	173457
#	185305
#
# Disc length: 2655 seconds
#
# Revision: 1
# Processed by: cddbd v1.5.2PL0 Copyright (c) Steve Scherf et al.
# Submitted via: audiograbber 1.83.01
#
DISCID=c60a5d0e
DTITLE=Baitaca - Bailanta da Boneca
DYEAR=1900
DGENRE=Gaúcha
TTITLE0=Bailanta da boneca
TTITLE1=Versos xucros
TTITLE2=Me orgulho em ser da campanha
TTITLE3=A evolução me entristece
TTITLE4=Caçada de sapo
TTITLE5=Chineiro e dançador
TTITLE6=Dedo inchado
TTITLE7=Baile de Bugio
TTITLE8=Lamento de xucro
TTITLE9=Meu canto a Francisco Vargas
TTITLE10=Crioulo Guapo
TTITLE11=Bagual sem freio
TTITLE12=Poeta pobre
TTITLE13=Honra missioneira
EXTD=
EXTT0=
EXTT1=
EXTT2=
EXTT3=
EXTT4=
EXTT5=
EXTT6=
EXTT7=
EXTT8=
EXTT9=
EXTT10=
EXTT11=
EXTT12=
EXTT13=
PLAYORDER=
